<?xml version="1.0" encoding="UTF-8" standalone="no"?>
<svg
   xmlns:dc="http://purl.org/dc/elements/1.1/"
   xmlns:cc="http://creativecommons.org/ns#"
   xmlns:rdf="http://www.w3.org/1999/02/22-rdf-syntax-ns#"
   xmlns:svg="http://www.w3.org/2000/svg"
   xmlns="http://www.w3.org/2000/svg"
   xmlns:sodipodi="http://sodipodi.sourceforge.net/DTD/sodipodi-0.dtd"
   xmlns:inkscape="http://www.inkscape.org/namespaces/inkscape"
   width="212.35374mm"
   height="167.37221mm"
   viewBox="0 0 212.35374 167.37221"
   version="1.1"
   id="svg8"
   inkscape:version="1.0.2-2 (e86c870879, 2021-01-15)"
   sodipodi:docname="lines.svg">
  <defs
     id="defs2" />
  <sodipodi:namedview
     id="base"
     pagecolor="#ffffff"
     bordercolor="#666666"
     borderopacity="1.0"
     inkscape:pageopacity="0.0"
     inkscape:pageshadow="2"
     inkscape:zoom="0.98994949"
     inkscape:cx="353.28266"
     inkscape:cy="256.55917"
     inkscape:document-units="mm"
     inkscape:current-layer="layer1"
     inkscape:document-rotation="0"
     showgrid="false"
     fit-margin-top="0"
     fit-margin-left="0"
     fit-margin-right="0"
     fit-margin-bottom="0"
     inkscape:window-width="1366"
     inkscape:window-height="705"
     inkscape:window-x="-8"
     inkscape:window-y="-8"
     inkscape:window-maximized="1" />
  <metadata
     id="metadata5">
    <rdf:RDF>
      <cc:Work
         rdf:about="">
        <dc:format>image/svg+xml</dc:format>
        <dc:type
           rdf:resource="http://purl.org/dc/dcmitype/StillImage" />
        <dc:title></dc:title>
      </cc:Work>
    </rdf:RDF>
  </metadata>
  <g
     inkscape:label="Layer 1"
     inkscape:groupmode="layer"
     id="layer1"
     transform="translate(-0.25012159,-69.67288)">
    <path
       style="fill:#00ffff;stroke-width:0.126608"
       d="M 28.94803,232.35993 25.9448,227.1392 H 13.95055 1.9563097 v -0.60388 -0.60389 l 12.1837903,0.007 12.18379,0.007 3.00275,5.19865 3.00275,5.19864 17.861,-0.094 c 9.82354,-0.0517 17.87455,-0.10954 17.89113,-0.12852 0.0166,-0.019 -1.43083,-2.03067 -3.21645,-4.47045 l -3.24659,-4.43595 -0.47319,-0.046 -0.4732,-0.046 v -0.64478 -0.64479 l 0.24574,-0.32825 c 0.31354,-0.41883 0.40483,-0.4125 0.70985,0.0492 l 0.24937,0.37743 h 30.81537 30.81537 l 2.63837,4.44333 2.63837,4.44332 19.67968,0.0103 19.67969,0.0103 -0.19624,-0.43693 c -0.10793,-0.24031 -0.93682,-1.96718 -1.84198,-3.83748 l -1.64574,-3.40055 -0.31853,-0.05 -0.31853,-0.05 -0.0323,-0.55004 -0.0323,-0.55007 0.31411,-0.31802 c 0.38878,-0.39362 0.46167,-0.3955 0.6283,-0.0161 l 0.13261,0.30194 h 23.67654 23.67653 v 0.60355 0.60354 l -23.36662,0.0381 -23.36662,0.0381 2.05695,4.22719 c 1.13131,2.32496 2.0932,4.31211 2.13752,4.4159 l 0.0806,0.18872 -20.63111,-0.003 -20.63111,-0.003 -2.65033,-4.45077 -2.65035,-4.45077 H 92.95519 62.74507 l 0.52962,0.73252 c 0.29129,0.40289 1.93912,2.6617 3.66184,5.0196 1.72271,2.35788 3.14814,4.33811 3.1676,4.40049 0.0195,0.0624 -6.88468,0.11353 -15.34255,0.11365 -8.45787,1.3e-4 -17.05023,0.0396 -19.09413,0.0877 l -3.71619,0.0875 -3.00323,-5.22073 z m 101.33899,-1.79058 -1.47046,-2.90175 1.09166,-0.0433 c 0.60042,-0.0238 1.14745,-0.0128 1.21564,0.0243 0.0993,0.0542 2.64788,4.92096 2.95486,5.64269 l 0.0803,0.18871 -1.20076,-0.004 -1.20075,-0.004 -1.47046,-2.90176 z m 4.56891,1.81609 c -0.50036,-0.96731 -1.89004,-3.70034 -2.28853,-4.50073 l -0.14567,-0.2926 1.15435,0.002 c 1.29393,0.003 1.23938,-0.0261 1.71737,0.90351 1.21438,2.36173 2.46302,4.85174 2.46302,4.91168 0,0.0387 -0.52524,0.0704 -1.16719,0.0704 h -1.16718 l -0.56617,-1.09454 z m 3.88957,0.4875 c -0.16439,-0.33387 -0.83554,-1.65864 -1.49145,-2.94393 l -1.19258,-2.3369 h 1.2087 1.20868 l 0.46168,0.89597 c 0.25392,0.49279 0.6528,1.28238 0.88639,1.75466 0.23359,0.47228 0.67459,1.34292 0.98002,1.93474 0.71231,1.38027 0.74823,1.3025 -0.60151,1.3025 h -1.16107 z m 2.51481,-2.2188 c -0.78837,-1.55081 -1.44932,-2.87417 -1.46878,-2.94083 -0.0195,-0.0667 0.49433,-0.1212 1.14176,-0.1212 h 1.17716 l 0.78773,1.54746 c 0.43325,0.8511 0.87989,1.71729 0.99251,1.92488 0.11262,0.20758 0.42482,0.836 0.69378,1.39648 l 0.48902,1.01905 -1.18991,-0.003 -1.18989,-0.003 -1.43338,-2.81964 z m 4.9683,2.56164 c -0.17197,-0.28201 -2.64319,-5.11778 -2.77743,-5.43495 l -0.0799,-0.18872 h 1.17525 1.17525 l 0.15323,0.2642 c 0.28426,0.49015 2.81764,5.48392 2.81764,5.55412 0,0.0383 -0.51817,0.0695 -1.15148,0.0695 h -1.15149 z m 2.34685,-2.49102 c -0.77311,-1.51537 -1.4511,-2.84014 -1.50663,-2.94393 l -0.10098,-0.18872 h 1.21095 1.21093 l 1.45648,2.86122 c 0.80107,1.57368 1.45649,2.89845 1.45649,2.94394 0,0.0455 -0.52235,0.0827 -1.16078,0.0827 h -1.16078 z m 4.08374,0.91262 c -0.51727,-1.01344 -1.01215,-1.99392 -1.09974,-2.17887 -0.0876,-0.18494 -0.33837,-0.68053 -0.55725,-1.10132 l -0.39799,-0.76508 h 1.2109 1.21089 l 0.39992,0.7926 c 0.21995,0.43593 0.8932,1.7607 1.4961,2.94394 l 1.09617,2.15133 h -1.20925 -1.20927 z m 4.09176,0.91147 c -0.25665,-0.51212 -0.60997,-1.21506 -0.78516,-1.56208 -0.1752,-0.34702 -0.5283,-1.06594 -0.78467,-1.59763 -0.25638,-0.53168 -0.58783,-1.15351 -0.73656,-1.38186 l -0.27042,-0.41517 h 1.17912 c 1.18185,0 1.51503,0.0693 1.51503,0.31505 0,0.0725 0.46118,1.03332 1.02483,2.13518 0.56366,1.10188 1.18886,2.32612 1.38934,2.72053 l 0.36451,0.71711 h -1.21469 -1.21469 z m 3.9226,0.50038 c -0.13659,-0.23692 -0.51113,-0.96097 -0.83231,-1.60902 -0.32119,-0.64804 -0.72927,-1.45628 -0.90685,-1.79607 -0.17757,-0.33979 -0.47848,-0.9405 -0.6687,-1.33491 l -0.34584,-0.71712 h 1.16546 1.16546 l 0.17058,0.24254 c 0.14562,0.20706 0.63348,1.15952 1.21946,2.3808 0.0846,0.17633 0.44595,0.89806 0.803,1.60385 0.35704,0.70579 0.68483,1.36818 0.7284,1.47197 l 0.0792,0.18871 h -1.16477 -1.16477 z M 29.72155,229.15121 c -0.70077,-1.37931 -1.36193,-2.70084 -1.46924,-2.93677 l -0.19511,-0.42894 0.88526,-1.73059 c 0.4869,-0.95183 1.07638,-2.11797 1.30997,-2.59145 0.23359,-0.47346 0.52027,-1.02355 0.63706,-1.22241 l 0.21236,-0.36156 1.13685,0.0443 1.13685,0.0443 -0.30721,0.67937 c -0.16897,0.37365 -0.82614,1.69812 -1.46039,2.94327 l -1.15318,2.2639 1.39157,2.71814 c 0.76536,1.49498 1.4274,2.80306 1.4712,2.90686 l 0.0796,0.18871 -1.20075,-0.005 -1.20076,-0.005 -1.27412,-2.50782 z m 4.37257,1.42258 c -0.47611,-0.92044 -1.79862,-3.52028 -2.27798,-4.47815 l -0.13512,-0.26999 1.50938,-2.96652 1.50938,-2.96654 h 1.20025 1.20026 l -0.54844,1.09454 c -0.30165,0.602 -0.99362,1.96074 -1.53773,3.01942 -0.5441,1.05869 -0.95415,1.92807 -0.91121,1.93195 0.0429,0.004 0.23449,0.32659 0.42567,0.71711 0.19119,0.39053 0.82427,1.64649 1.40685,2.79102 0.58258,1.14454 1.05923,2.11264 1.05923,2.15133 0,0.0387 -0.52523,0.0704 -1.16719,0.0704 h -1.16718 z m 3.88956,0.4875 c -0.16438,-0.33387 -0.83213,-1.65204 -1.4839,-2.92926 l -1.18502,-2.3222 1.45046,-2.87875 c 1.61596,-3.20718 1.48128,-3.06806 2.91102,-3.00713 l 1.03584,0.0441 -1.49094,2.91878 -1.49094,2.91877 0.4551,0.88339 c 0.25031,0.48585 0.64622,1.26979 0.87981,1.74207 0.23359,0.47228 0.6746,1.34292 0.98002,1.93474 0.71231,1.38027 0.74823,1.3025 -0.60152,1.3025 h -1.16106 z m 2.51482,-2.22678 c -0.78837,-1.55516 -1.43058,-2.9295 -1.42713,-3.05405 0.008,-0.27415 2.77676,-5.72963 2.95874,-5.82894 0.0707,-0.0385 0.61863,-0.0506 1.2177,-0.0268 l 1.08922,0.0433 -1.48587,2.9223 -1.48588,2.92228 0.77942,1.53136 c 0.42867,0.84224 0.87155,1.70119 0.98418,1.90877 0.11262,0.20759 0.42483,0.83601 0.69378,1.39649 l 0.48901,1.01905 -1.18989,-0.003 -1.1899,-0.003 -1.43338,-2.82761 z m 4.53098,1.73928 c -0.31187,-0.602 -0.97957,-1.90297 -1.48378,-2.89106 l -0.91674,-1.79651 0.23627,-0.54354 c 0.24056,-0.5534 0.32973,-0.73264 1.83569,-3.68998 l 0.85786,-1.68462 1.23838,-0.0425 1.23838,-0.0425 -0.41946,0.7975 c -0.23069,0.43863 -0.91405,1.7799 -1.51856,2.98061 l -1.09911,2.1831 0.13402,0.23231 c 0.27746,0.48092 2.79844,5.45564 2.79844,5.52222 0,0.0382 -0.52523,0.0695 -1.16718,0.0695 H 45.5965 Z m 2.78418,-1.66068 c -0.77312,-1.51537 -1.44423,-2.82835 -1.49136,-2.91774 -0.0513,-0.0974 0.29356,-0.91434 0.8604,-2.03811 0.52034,-1.03157 1.1285,-2.24518 1.35147,-2.69692 0.22296,-0.45173 0.489,-0.94427 0.59119,-1.09454 l 0.18581,-0.27321 h 1.18055 1.18055 l -0.26277,0.49066 c -1.23381,2.3038 -2.72922,5.44128 -2.66565,5.59269 0.042,0.10008 0.68853,1.38326 1.43671,2.85152 0.74818,1.46826 1.36033,2.70811 1.36033,2.75522 0,0.0471 -0.52235,0.0857 -1.16078,0.0857 h -1.16078 z m 4.03129,0.78875 c -0.54682,-1.08156 -1.21654,-2.38934 -1.48827,-2.90619 l -0.49405,-0.93972 0.23625,-0.45292 c 0.12994,-0.2491 0.78105,-1.5399 1.44692,-2.86844 1.45991,-2.91281 1.19103,-2.63689 2.57232,-2.63969 l 1.14385,-0.002 -0.18826,0.41476 c -0.10354,0.22812 -0.77269,1.56347 -1.48701,2.96744 l -1.29875,2.55266 0.38805,0.7691 c 0.21342,0.423 0.88132,1.7372 1.48422,2.92044 l 1.09618,2.15134 h -1.20862 -1.20862 l -0.99421,-1.96648 z m 4.1442,1.03534 c -0.25665,-0.51212 -0.60997,-1.21506 -0.78516,-1.56208 -0.1752,-0.34702 -0.5283,-1.06595 -0.78467,-1.59764 -0.25637,-0.53167 -0.57283,-1.13652 -0.70324,-1.34411 l -0.23711,-0.37742 1.50883,-2.94394 1.50883,-2.94393 1.23756,-0.0425 1.23756,-0.0425 -0.41744,0.79736 c -1.56195,2.98361 -2.63454,5.18294 -2.54859,5.22587 0.0554,0.0277 0.10077,0.11123 0.10077,0.18567 0,0.0745 0.46117,1.03689 1.02483,2.13875 0.56366,1.10188 1.18886,2.32612 1.38934,2.72053 l 0.36451,0.71711 h -1.21469 -1.21469 z m 3.9226,0.50038 c -0.13659,-0.23692 -0.51112,-0.96098 -0.83231,-1.60902 -0.32118,-0.64804 -0.72926,-1.45628 -0.90684,-1.79607 -0.17758,-0.33979 -0.47859,-0.9407 -0.66892,-1.33537 l -0.34606,-0.71755 1.50543,-2.9435 1.50543,-2.94348 h 1.20918 1.20918 l -0.83248,1.62294 c -1.91218,3.72787 -2.23658,4.3975 -2.15243,4.44327 0.0756,0.0411 0.76834,1.36484 1.27708,2.44039 0.0846,0.17885 0.44595,0.90267 0.803,1.60846 0.35705,0.70579 0.68483,1.36817 0.7284,1.47197 l 0.0792,0.18871 h -1.16477 -1.16477 z m -41.28568,-7.19655 c 0,-0.0433 0.79957,-1.18125 1.77683,-2.52876 0.97725,-1.34751 2.3748,-3.28125 3.10567,-4.29721 l 1.32884,-1.84719 1.22104,0.002 1.22103,0.002 -0.53088,0.70686 c -0.29199,0.38878 -1.60593,2.17725 -2.91987,3.97437 -1.31393,1.79715 -2.52734,3.44765 -2.69646,3.6678 l -0.3075,0.40028 h -1.09935 c -0.60464,-4.2e-4 -1.09935,-0.0358 -1.09935,-0.0792 z m 3.61001,-0.0588 c 0,-0.0756 0.15529,-0.3224 0.34508,-0.54831 0.18979,-0.22591 1.53283,-2.04807 2.98453,-4.04922 3.21031,-4.42536 2.76016,-3.99175 4.20359,-4.04908 l 1.19966,-0.0476 -1.31384,1.79229 c -0.72262,0.98577 -2.17964,2.97293 -3.23783,4.41591 l -1.92398,2.6236 h -1.12861 c -0.62073,0 -1.1286,-0.0619 -1.1286,-0.13755 z m 156.02685,-3.06397 c -1.28474,-1.75522 -2.73168,-3.74007 -3.21541,-4.41078 l -0.87952,-1.2195 1.19004,0.0476 c 1.43228,0.0573 0.98487,-0.37462 4.19397,4.04908 1.4517,2.00115 2.79474,3.82331 2.98454,4.04922 0.52056,0.61964 0.44259,0.6863 -0.79633,0.68076 l -1.1414,-0.005 -2.33589,-3.19131 z m 5.7225,2.80124 c -0.16911,-0.22015 -1.38252,-1.87066 -2.69646,-3.6678 -1.31394,-1.79713 -2.62788,-3.58559 -2.91986,-3.97437 l -0.53089,-0.70686 1.22103,-0.002 1.22104,-0.002 1.32884,1.84719 c 0.73087,1.01596 2.12842,2.9497 3.10568,4.29721 0.97725,1.3475 1.77682,2.48545 1.77682,2.52876 0,0.0433 -0.49471,0.0788 -1.09935,0.0788 h -1.09936 l -0.30749,-0.40029 z M 16.15324,223.6669 c 0.0305,-0.16607 0.0933,-0.30194 0.13938,-0.30194 0.0461,0 0.059,-0.13505 0.0287,-0.3001 -0.0339,-0.18425 0.006,-0.33374 0.10439,-0.38718 0.10242,-0.0559 0.1384,-0.2022 0.10046,-0.40849 l -0.0591,-0.32141 2.38019,-3.28631 2.3802,-3.28631 1.22103,-0.002 1.22103,-0.002 -0.25068,0.29696 c -0.22572,0.26737 -3.05709,4.09782 -5.26749,7.12618 l -0.85244,1.16787 -0.60057,0.002 -0.60058,0.002 0.0555,-0.30195 z m 170.81317,-0.87023 c -2.21041,-3.02836 -5.04177,-6.85881 -5.26749,-7.12618 l -0.25069,-0.29696 1.22104,0.002 1.22103,0.002 2.38019,3.28631 2.3802,3.2863 -0.0591,0.32142 c -0.0379,0.20629 -0.002,0.35259 0.10046,0.40848 0.098,0.0534 0.13826,0.20294 0.10438,0.38718 -0.0303,0.16506 -0.0175,0.3001 0.0287,0.3001 0.0461,0 0.10884,0.13588 0.13938,0.30195 l 0.0555,0.30194 -0.60058,-0.002 -0.60058,-0.002 -0.85243,-1.16787 z m -169.9686,-5.05538 0.0569,-1.54746 0.32229,-0.41517 0.3223,-0.41517 1.12701,0.003 1.12701,0.003 -1.43338,1.95412 c -0.78837,1.07478 -1.46614,1.95646 -1.50617,1.95933 -0.04,0.003 -0.0472,-0.69114 -0.0159,-1.54224 z m 169.6,-0.41709 -1.43339,-1.95412 1.12702,-0.003 1.12701,-0.003 0.32229,0.41517 0.32229,0.41517 0.0569,1.54746 c 0.0313,0.85109 0.0241,1.54511 -0.0159,1.54224 -0.04,-0.003 -0.7178,-0.88455 -1.50616,-1.95933 z M 17.01987,214.41989 c -0.008,-0.10379 -0.0351,-0.35855 -0.0615,-0.56614 -0.0264,-0.20758 -0.05,-0.58124 -0.0526,-0.83034 -0.003,-0.2491 -0.0448,-0.48931 -0.0938,-0.5338 -0.049,-0.0445 -0.0614,-0.23132 -0.0276,-0.41517 l 0.0615,-0.33428 h 7.10146 7.10147 v 1.43422 1.43423 h -7.00767 -7.00767 z m 157.04907,-1.24551 v -1.43422 h 7.10147 7.10146 l 0.0615,0.33428 c 0.0338,0.18385 0.0214,0.37068 -0.0276,0.41517 -0.049,0.0445 -0.0912,0.2847 -0.0938,0.5338 -0.003,0.2491 -0.0263,0.62276 -0.0526,0.83034 -0.0264,0.20759 -0.054,0.46235 -0.0615,0.56614 l -0.0135,0.18872 h -7.00768 -7.00767 z M 29.73417,211.32537 c -1.38618,-0.0585 -0.99185,0.31382 -3.89986,-3.68191 -1.30746,-1.7965 -2.68776,-3.68121 -3.06734,-4.18824 l -0.69015,-0.92188 1.20823,-0.002 1.20824,-0.002 1.9601,2.67974 c 4.13557,5.65389 4.54075,6.21243 4.48919,6.18829 -0.0292,-0.0137 -0.57298,-0.0468 -1.20841,-0.0736 z m 145.69094,-1.6988 c 0.70351,-0.9549 2.16114,-2.94205 3.2392,-4.41591 l 1.96011,-2.67973 1.20823,0.002 1.20824,0.002 -0.69015,0.92187 c -0.37959,0.50704 -1.75989,2.39174 -3.06735,4.18824 -2.90893,3.99699 -2.49899,3.61462 -3.93634,3.67163 l -1.20103,0.0477 1.27909,-1.73617 z m -158.36023,0.86808 c -0.52603,-0.76465 -0.966,-1.96533 -1.14514,-3.12506 -0.0391,-0.25326 -0.11512,-0.4605 -0.16888,-0.4605 -0.0538,0 -0.0977,-0.12632 -0.0977,-0.28069 0,-0.15438 -0.15001,-0.68089 -0.33336,-1.17002 l -0.33335,-0.88934 0.51916,0.66933 c 0.28554,0.36812 0.87751,1.16498 1.31549,1.77078 0.43798,0.6058 1.32191,1.81479 1.96428,2.68664 l 1.16794,1.58518 -1.17157,0.003 -1.17157,0.003 -0.54526,-0.7926 z m 1.05813,-3.47016 c -1.70742,-2.33507 -3.09303,-4.25797 -3.07913,-4.27313 0.0139,-0.0151 0.50306,-0.0688 1.08703,-0.11915 l 1.06177,-0.0916 0.90251,1.2273 c 0.49637,0.67502 1.87675,2.55758 3.06751,4.18348 1.19076,1.62591 2.24191,3.03945 2.33589,3.14122 l 0.17088,0.18503 -1.22103,-0.004 -1.22104,-0.004 -3.10439,-4.24557 z m 5.43787,2.48524 c -0.7021,-0.97366 -2.13355,-2.94221 -3.18101,-4.37455 l -1.90447,-2.60425 h 1.17469 1.17468 l 0.3075,0.40028 c 0.16912,0.22015 1.38253,1.87065 2.69646,3.6678 1.31394,1.79713 2.62788,3.58559 2.91987,3.97437 l 0.53088,0.70686 -1.22103,-1e-4 -1.22104,-1.1e-4 z m 154.80823,1.06365 c 0.29198,-0.38878 1.60592,-2.17724 2.91986,-3.97437 1.31394,-1.79715 2.52735,-3.44765 2.69646,-3.6678 l 0.30749,-0.40028 h 1.17469 1.17469 l -1.90446,2.60425 c -1.04746,1.43234 -2.47891,3.40089 -3.18101,4.37455 l -1.27654,1.7703 -1.22104,1.1e-4 -1.22103,1e-4 z m 3.25,0.52233 c 0.094,-0.10346 1.14513,-1.51841 2.33589,-3.14432 1.19076,-1.6259 2.57114,-3.50846 3.06752,-4.18348 l 0.9025,-1.2273 1.06177,0.0916 c 0.58397,0.0504 1.07331,0.10425 1.08742,0.11971 0.0141,0.0155 -1.36788,1.92524 -3.07108,4.24398 l -3.09674,4.21586 -1.22909,0.036 -1.22907,0.036 z m 4.71326,-1.39992 c 0.64237,-0.87185 1.52629,-2.08084 1.96427,-2.68664 0.43798,-0.6058 1.02995,-1.40266 1.31549,-1.77078 l 0.51916,-0.66933 -0.33335,0.88934 c -0.18335,0.48913 -0.33336,1.01564 -0.33336,1.17002 0,0.15437 -0.044,0.28069 -0.0977,0.28069 -0.0538,0 -0.12976,0.20724 -0.16889,0.4605 -0.17914,1.15973 -0.61911,2.36041 -1.14514,3.12506 l -0.54526,0.7926 -1.17156,-0.003 -1.17158,-0.003 1.16795,-1.58519 z M 34.87322,162.48086 c -0.14485,-0.10431 -0.32425,-0.35815 -0.39868,-0.5641 l -0.13533,-0.37446 0.0271,-5.39318 0.0271,-5.39318 0.24185,-0.34372 0.24185,-0.34371 h 72.61904 72.61905 l 0.24185,0.34388 0.24185,0.34387 v 5.57754 5.57754 l -0.24185,0.34388 -0.24184,0.34388 -72.48929,0.0357 -72.48927,0.0357 z m 144.92927,-6.14706 v -5.13301 H 107.49607 35.18965 v 5.13301 5.13302 h 72.30642 72.30642 z m -143.33662,4.19279 c -0.14484,-0.1089 -0.32465,-0.3665 -0.39957,-0.57246 l -0.13623,-0.37445 0.0279,-3.43069 0.028,-3.4307 0.24185,-0.34358 0.24185,-0.34358 h 0.73734 0.73733 l 0.24185,0.34388 0.24185,0.34388 v 3.61491 3.61491 l -0.23478,0.33383 -0.23477,0.33383 -0.61464,0.0541 c -0.37395,0.0329 -0.71777,-0.0234 -0.87799,-0.14389 z m 3.39766,0 c -0.14484,-0.1089 -0.32465,-0.3665 -0.39958,-0.57246 l -0.13622,-0.37445 0.0279,-3.43069 0.028,-3.4307 0.24185,-0.34358 0.24184,-0.34358 h 0.73734 0.73734 l 0.24185,0.34388 0.24185,0.34388 v 3.61491 3.61491 l -0.23478,0.33383 -0.23477,0.33383 -0.61464,0.0541 c -0.37395,0.0329 -0.71777,-0.0234 -0.87799,-0.14389 z m 3.39766,0 c -0.14485,-0.1089 -0.32465,-0.3665 -0.39958,-0.57246 l -0.13622,-0.37445 0.0279,-3.43069 0.028,-3.4307 0.24185,-0.34358 0.24184,-0.34358 h 0.73734 0.73734 l 0.24185,0.34388 0.24185,0.34388 v 3.61491 3.61491 l -0.23478,0.33383 -0.23477,0.33383 -0.61464,0.0541 c -0.37395,0.0329 -0.71777,-0.0234 -0.87799,-0.14389 z m 3.39765,0 c -0.14484,-0.1089 -0.32465,-0.3665 -0.39957,-0.57246 l -0.13622,-0.37445 0.028,-3.43069 0.0279,-3.4307 0.24184,-0.34358 0.24185,-0.34358 h 0.73734 0.73734 l 0.24185,0.34388 0.24184,0.34388 v 3.61491 3.61491 l -0.23477,0.33383 -0.23477,0.33383 -0.61464,0.0541 c -0.37395,0.0329 -0.71777,-0.0234 -0.87799,-0.14389 z m 3.39766,0 c -0.14484,-0.1089 -0.32465,-0.3665 -0.39957,-0.57246 l -0.13623,-0.37445 0.028,-3.43069 0.0279,-3.4307 0.24185,-0.34358 0.24185,-0.34358 h 0.73734 0.73734 l 0.24184,0.34388 0.24185,0.34388 v 3.61491 3.61491 l -0.23477,0.33383 -0.23478,0.33383 -0.61464,0.0541 c -0.37394,0.0329 -0.71777,-0.0234 -0.87799,-0.14389 z m 3.39766,0 c -0.14484,-0.1089 -0.32465,-0.3665 -0.39957,-0.57246 l -0.13623,-0.37445 0.0279,-3.43069 0.028,-3.4307 0.24185,-0.34358 0.24185,-0.34358 h 0.73734 0.73734 l 0.24184,0.34388 0.24185,0.34388 v 3.61491 3.61491 l -0.23477,0.33383 -0.23478,0.33383 -0.61464,0.0541 c -0.37394,0.0329 -0.71777,-0.0234 -0.87799,-0.14389 z m 3.39766,0 c -0.14484,-0.1089 -0.32465,-0.3665 -0.39957,-0.57246 l -0.13623,-0.37445 0.028,-3.43069 0.028,-3.4307 0.24185,-0.34358 0.24185,-0.34358 h 0.73733 0.73734 l 0.24185,0.34388 0.24185,0.34388 v 3.61491 3.61491 l -0.23478,0.33383 -0.23477,0.33383 -0.61464,0.0541 c -0.37395,0.0329 -0.71777,-0.0234 -0.87799,-0.14389 z m 3.39766,0 c -0.14484,-0.1089 -0.32465,-0.3665 -0.39958,-0.57246 l -0.13622,-0.37445 0.0279,-3.43069 0.028,-3.4307 0.24185,-0.34358 0.24185,-0.34358 h 0.73733 0.73734 l 0.24185,0.34388 0.24185,0.34388 v 3.61491 3.61491 l -0.23478,0.33383 -0.23477,0.33383 -0.61464,0.0541 c -0.37395,0.0329 -0.71777,-0.0234 -0.87799,-0.14389 z m 3.39766,0 c -0.14485,-0.1089 -0.32465,-0.3665 -0.39958,-0.57246 l -0.13622,-0.37445 0.028,-3.43069 0.028,-3.4307 0.24185,-0.34358 0.24184,-0.34358 h 0.73734 0.73734 l 0.24185,0.34388 0.24185,0.34388 v 3.61491 3.61491 l -0.23478,0.33383 -0.23477,0.33383 -0.61464,0.0541 c -0.37395,0.0329 -0.71777,-0.0234 -0.87799,-0.14389 z m 3.39765,0 c -0.14484,-0.1089 -0.32465,-0.3665 -0.39957,-0.57246 l -0.13622,-0.37445 0.028,-3.43069 0.0279,-3.4307 0.24184,-0.34358 0.24185,-0.34358 h 0.73734 0.73734 l 0.24185,0.34388 0.24184,0.34388 v 3.61491 3.61491 l -0.23477,0.33383 -0.23477,0.33383 -0.61465,0.0541 c -0.37394,0.0329 -0.71776,-0.0234 -0.87799,-0.14389 z m 3.39766,0 c -0.14484,-0.1089 -0.32465,-0.3665 -0.39957,-0.57246 l -0.13622,-0.37445 0.028,-3.43069 0.028,-3.4307 0.24184,-0.34358 0.24185,-0.34358 h 0.73734 0.73734 l 0.24185,0.34388 0.24184,0.34388 v 3.61491 3.61491 l -0.23477,0.33383 -0.23478,0.33383 -0.61464,0.0541 c -0.37394,0.0329 -0.71776,-0.0234 -0.87799,-0.14389 z m 3.39766,0 c -0.14484,-0.1089 -0.32465,-0.3665 -0.39957,-0.57246 l -0.13623,-0.37445 0.028,-3.43069 0.028,-3.4307 0.24185,-0.34358 0.24185,-0.34358 h 0.73734 0.73734 l 0.24184,0.34388 0.24185,0.34388 v 3.61491 3.61491 l -0.23477,0.33383 -0.23478,0.33383 -0.61464,0.0541 c -0.37394,0.0329 -0.71777,-0.0234 -0.87799,-0.14389 z m 3.39766,0 c -0.14484,-0.1089 -0.32465,-0.3665 -0.39957,-0.57246 l -0.13623,-0.37445 0.0279,-3.43069 0.028,-3.4307 0.24185,-0.34358 0.24185,-0.34358 h 0.73734 0.73733 l 0.24185,0.34388 0.24185,0.34388 v 3.61491 3.61491 l -0.23477,0.33383 -0.23478,0.33383 -0.61464,0.0541 c -0.37394,0.0329 -0.71777,-0.0234 -0.87799,-0.14389 z m 3.39766,0 c -0.14484,-0.1089 -0.32465,-0.3665 -0.39958,-0.57246 l -0.13622,-0.37445 0.028,-3.43069 0.028,-3.4307 0.24185,-0.34358 0.24185,-0.34358 h 0.73733 0.73734 l 0.24185,0.34388 0.24185,0.34388 v 3.61491 3.61491 l -0.23478,0.33383 -0.23477,0.33383 -0.61464,0.0541 c -0.37395,0.0329 -0.71777,-0.0234 -0.87799,-0.14389 z m 3.39766,0 c -0.14485,-0.1089 -0.32465,-0.3665 -0.39958,-0.57246 l -0.13622,-0.37445 0.028,-3.43069 0.0279,-3.4307 0.24185,-0.34358 0.24184,-0.34358 h 0.73734 0.73734 l 0.24185,0.34388 0.24185,0.34388 v 3.61491 3.61491 l -0.23478,0.33383 -0.23477,0.33383 -0.61464,0.0541 c -0.37395,0.0329 -0.71777,-0.0234 -0.87799,-0.14389 z m 3.39766,0 c -0.14485,-0.1089 -0.32466,-0.3665 -0.39958,-0.57246 l -0.13622,-0.37445 0.028,-3.43069 0.028,-3.4307 0.24185,-0.34358 0.24184,-0.34358 h 0.73734 0.73734 l 0.24185,0.34388 0.24184,0.34388 v 3.61491 3.61491 l -0.23477,0.33383 -0.23477,0.33383 -0.61464,0.0541 c -0.37395,0.0329 -0.71777,-0.0234 -0.87799,-0.14389 z m 3.39765,0 c -0.14484,-0.1089 -0.32465,-0.3665 -0.39957,-0.57246 l -0.13622,-0.37445 0.0279,-3.43069 0.028,-3.4307 0.24184,-0.34358 0.24185,-0.34358 h 0.73734 0.73734 l 0.24184,0.34388 0.24185,0.34388 v 3.61491 3.61491 l -0.23477,0.33383 -0.23478,0.33383 -0.61464,0.0541 c -0.37394,0.0329 -0.71777,-0.0234 -0.87799,-0.14389 z m 3.39766,0 c -0.14484,-0.1089 -0.32465,-0.3665 -0.39957,-0.57246 l -0.13623,-0.37445 0.0279,-3.43069 0.028,-3.4307 0.24185,-0.34358 0.24185,-0.34358 h 0.73734 0.73734 l 0.24184,0.34388 0.24185,0.34388 v 3.61491 3.61491 l -0.23477,0.33383 -0.23478,0.33383 -0.61464,0.0541 c -0.37394,0.0329 -0.71777,-0.0234 -0.87799,-0.14389 z m 3.39766,0 c -0.14484,-0.1089 -0.32465,-0.3665 -0.39957,-0.57246 l -0.13623,-0.37445 0.028,-3.43069 0.028,-3.4307 0.24185,-0.34358 0.24185,-0.34358 h 0.73734 0.73734 l 0.24184,0.34388 0.24185,0.34388 v 3.61491 3.61491 l -0.23477,0.33383 -0.23478,0.33383 -0.61464,0.0541 c -0.37394,0.0329 -0.71777,-0.0234 -0.87799,-0.14389 z m 3.39766,0 c -0.14484,-0.1089 -0.32465,-0.3665 -0.39958,-0.57246 l -0.13622,-0.37445 0.028,-3.43069 0.028,-3.4307 0.24185,-0.34358 0.24185,-0.34358 h 0.73734 0.73733 l 0.24185,0.34388 0.24185,0.34388 v 3.61491 3.61491 l -0.23477,0.33383 -0.23478,0.33383 -0.61464,0.0541 c -0.37395,0.0329 -0.71777,-0.0234 -0.87799,-0.14389 z m 3.39766,0 c -0.14484,-0.1089 -0.32465,-0.3665 -0.39957,-0.57246 l -0.13623,-0.37445 0.028,-3.43069 0.028,-3.4307 0.24185,-0.34358 0.24185,-0.34358 h 0.73733 0.73734 l 0.24185,0.34388 0.24185,0.34388 v 3.61491 3.61491 l -0.23478,0.33383 -0.23477,0.33383 -0.61464,0.0541 c -0.37395,0.0329 -0.71777,-0.0234 -0.87799,-0.14389 z m 3.39766,0 c -0.14485,-0.1089 -0.32465,-0.3665 -0.39958,-0.57246 l -0.13622,-0.37445 0.028,-3.43069 0.028,-3.4307 0.24185,-0.34358 0.24185,-0.34358 h 0.73733 0.73734 l 0.24185,0.34388 0.24185,0.34388 v 3.61491 3.61491 l -0.23478,0.33383 -0.23477,0.33383 -0.61465,0.0541 c -0.37394,0.0329 -0.71776,-0.0234 -0.87798,-0.14389 z m 3.39766,0 c -0.14485,-0.1089 -0.32465,-0.3665 -0.39958,-0.57246 l -0.13622,-0.37445 0.028,-3.43069 0.028,-3.4307 0.24185,-0.34358 0.24185,-0.34358 h 0.73733 0.73734 l 0.24185,0.34388 0.24185,0.34388 v 3.61491 3.61491 l -0.23478,0.33383 -0.23477,0.33383 -0.61465,0.0541 c -0.37394,0.0329 -0.71776,-0.0234 -0.87798,-0.14389 z m 3.39765,0 c -0.14484,-0.1089 -0.32464,-0.3665 -0.39957,-0.57246 l -0.13623,-0.37445 0.028,-3.43069 0.028,-3.4307 0.24185,-0.34358 0.24185,-0.34358 h 0.73733 0.73733 l 0.24185,0.34388 0.24185,0.34388 v 3.61491 3.61491 l -0.23477,0.33383 -0.23477,0.33383 -0.61465,0.0541 c -0.37394,0.0329 -0.71777,-0.0234 -0.87799,-0.14389 z m 3.39766,0 c -0.14484,-0.1089 -0.32464,-0.3665 -0.39957,-0.57246 l -0.13623,-0.37445 0.028,-3.43069 0.0279,-3.4307 0.24185,-0.34358 0.24185,-0.34358 h 0.73734 0.73733 l 0.24185,0.34388 0.24185,0.34388 v 3.61491 3.61491 l -0.23478,0.33383 -0.23476,0.33383 -0.61465,0.0541 c -0.37395,0.0329 -0.71777,-0.0234 -0.87799,-0.14389 z M 1.3192497,92.775018 V 92.020163 H 19.77756 38.23587 l 0.17572,0.276087 c 0.22839,0.35884 0.22249,0.673736 -0.0184,0.983767 l -0.19417,0.249856 H 19.75916 1.3192997 Z m 175.7659703,0.377427 -0.17392,-0.377427 0.17392,-0.377428 0.17392,-0.377427 h 18.20689 18.20687 v 0.754855 0.754855 H 195.46603 177.25914 Z M 1.3192497,89.453656 V 88.698801 H 25.40493 49.49061 l 0.17572,0.276087 c 0.2284,0.35884 0.22249,0.673737 -0.0185,0.983768 l -0.19417,0.249855 H 25.38643 1.3191997 Z M 165.96287,89.630482 c -0.22839,-0.35884 -0.22248,-0.673736 0.0185,-0.983767 l 0.19417,-0.249856 h 23.7487 23.74871 v 0.754855 0.754855 H 189.90575 166.1386 Z M 1.3192497,86.132294 V 85.377439 H 34.58923 67.8592 l 0.17573,0.276087 c 0.22839,0.35884 0.22248,0.673737 -0.0185,0.983768 l -0.19417,0.249855 H 34.57073 1.3191997 Z M 154.70813,86.460091 c -0.2284,-0.35884 -0.22248,-0.673736 0.0184,-0.983767 l 0.19418,-0.249856 h 29.37607 29.37608 v 0.754855 0.754855 H 184.27838 154.88385 Z M 1.9563097,81.150251 V 80.546367 H 14.04231 26.1283 l 2.99943,-5.169473 2.99942,-5.169475 18.493,0.05144 c 10.17115,0.02829 18.49976,0.06168 18.50803,0.0742 0.008,0.01252 -1.65207,2.294799 -3.68964,5.071724 -2.03758,2.776926 -3.70468,5.069798 -3.70468,5.095271 0,0.02547 13.86802,0.04282 30.81782,0.03856 l 30.81783,-0.0078 2.65118,-4.445886 2.65118,-4.445884 h 20.09721 c 11.05346,0 20.0972,0.03387 20.0972,0.07528 0,0.0414 -0.95475,2.028556 -2.12168,4.415901 l -2.12169,4.340625 23.78176,0.03807 23.78175,0.03808 v 0.603552 0.603553 h -24.59293 -24.59294 l 0.10264,-0.188713 c 0.32121,-0.590605 4.17044,-8.555506 4.17044,-8.629564 0,-0.04896 -8.61227,-0.08739 -19.13838,-0.0854 l -19.13837,0.0036 -2.65361,4.450033 -2.65362,4.450037 -32.01312,-0.0016 -32.01312,-0.0016 1.32721,-1.853175 c 0.72997,-1.019246 2.3989,-3.317098 3.70874,-5.106337 l 2.38152,-3.253162 -17.23045,-0.100097 c -9.47675,-0.05505 -17.27192,-0.06365 -17.3226,-0.01912 -0.0507,0.04454 -1.43383,2.388135 -3.07366,5.207994 l -2.98151,5.127014 H 14.21448 1.9563097 Z M 65.17404,79.17795 c 0.15057,-0.254426 1.30905,-2.020786 2.57442,-3.925246 l 2.30066,-3.462654 h 2.1676 2.1676 l -0.19352,0.348287 c -0.10643,0.191558 -1.26452,1.957918 -2.57352,3.925246 l -2.38001,3.576958 h -2.16849 -2.16849 z m 6.58297,0 c 0.15056,-0.254426 1.30905,-2.020786 2.57441,-3.925246 l 2.30067,-3.462654 h 2.16759 2.1676 l -0.19352,0.348287 c -0.10643,0.191558 -1.26452,1.957918 -2.57352,3.925246 l -2.38001,3.576958 h -2.16849 -2.16849 z m 6.58296,0 c 0.15056,-0.254426 1.30905,-2.020786 2.57442,-3.925246 l 2.30066,-3.462654 h 2.1676 2.16759 l -0.19351,0.348287 c -0.10644,0.191558 -1.26452,1.957918 -2.57353,3.925246 l -2.38,3.576958 h -2.16849 -2.1685 z m 6.58296,0 c 0.15057,-0.254426 1.30905,-2.020786 2.57442,-3.925246 l 2.30066,-3.462654 h 2.1676 2.1676 l -0.19352,0.348287 c -0.10643,0.191558 -1.26452,1.957918 -2.57352,3.925246 l -2.38001,3.576958 h -2.16849 -2.16849 z m 6.58296,0 c 0.15057,-0.254426 1.30906,-2.020786 2.57442,-3.925246 l 2.30067,-3.462654 h 2.16759 2.1676 l -0.19352,0.348287 c -0.10643,0.191558 -1.26452,1.957918 -2.57352,3.925246 l -2.38001,3.576958 h -2.16849 -2.16849 z m 6.58297,0 c 0.15056,-0.254426 1.30905,-2.020786 2.57442,-3.925246 l 2.30066,-3.462654 h 2.1676 2.16759 l -0.19351,0.348287 c -0.10644,0.191558 -1.26452,1.957918 -2.57352,3.925246 l -2.38001,3.576958 h -2.1685 -2.16849 z m 6.58296,0 c 0.15057,-0.254426 1.30906,-2.020786 2.57442,-3.925246 l 2.30066,-3.462654 h 2.1676 2.1676 l -0.19352,0.348287 c -0.10643,0.191558 -1.26452,1.957918 -2.57352,3.925246 l -2.38001,3.576958 h -2.16849 -2.16849 z m 6.58297,0 c 0.15056,-0.254426 1.30905,-2.020786 2.57441,-3.925246 l 2.30066,-3.462654 h 2.1676 2.1676 l -0.19351,0.348287 c -0.10644,0.191558 -1.26453,1.957918 -2.57353,3.925246 l -2.38,3.576958 h -2.1685 -2.16849 z m 6.58296,0 c 0.15056,-0.254426 1.30905,-2.020786 2.57442,-3.925246 l 2.30066,-3.462654 h 2.1676 2.1676 l -0.19352,0.348287 c -0.10643,0.191558 -1.26452,1.957918 -2.57352,3.925246 l -2.38001,3.576958 h -2.16849 -2.16849 z"
       id="path38" />
  </g>
</svg>
